<svg width="8" height="8" viewBox="0 0 8 8" fill="none" xmlns="http://www.w3.org/2000/svg">
<path fill-rule="evenodd" clip-rule="evenodd" d="M0.494078 0.494078C0.819515 0.168641 1.34715 0.168641 1.67259 0.494078L4 2.82149L6.32741 0.494078C6.65285 0.168641 7.18049 0.168641 7.50592 0.494078C7.83136 0.819515 7.83136 1.34715 7.50592 1.67259L5.17851 4L7.50592 6.32741C7.83136 6.65285 7.83136 7.18049 7.50592 7.50592C7.18049 7.83136 6.65285 7.83136 6.32741 7.50592L4 5.17851L1.67259 7.50592C1.34715 7.83136 0.819515 7.83136 0.494078 7.50592C0.168641 7.18049 0.168641 6.65285 0.494078 6.32741L2.82149 4L0.494078 1.67259C0.168641 1.34715 0.168641 0.819515 0.494078 0.494078Z" fill="#B7B7B7"/>
</svg>
