<svg width="157" height="40" viewBox="0 0 157 40" fill="none" xmlns="http://www.w3.org/2000/svg">
<path d="M133.184 28.7611C132.534 28.7611 131.883 28.6996 131.233 28.5766C130.582 28.4535 129.976 28.2337 129.413 27.9173C128.851 27.6009 128.376 27.1789 127.989 26.6515C127.602 26.1065 127.356 25.4385 127.251 24.6474H130.02C130.16 25.0693 130.407 25.4121 130.758 25.6758C131.127 25.9395 131.532 26.1329 131.971 26.256C132.428 26.379 132.877 26.4406 133.316 26.4406C133.58 26.4406 133.87 26.423 134.186 26.3878C134.52 26.3527 134.837 26.2736 135.136 26.1505C135.434 26.0274 135.681 25.8516 135.874 25.6231C136.067 25.377 136.164 25.0517 136.164 24.6474C136.164 24.3309 136.076 24.0672 135.9 23.8563C135.742 23.6453 135.514 23.4783 135.215 23.3552C134.933 23.2146 134.591 23.1091 134.186 23.0388C133.395 22.863 132.543 22.696 131.628 22.5378C130.732 22.362 129.941 22.0631 129.255 21.6412C129.009 21.4829 128.789 21.3071 128.596 21.1138C128.402 20.9028 128.235 20.6655 128.095 20.4018C127.954 20.1381 127.849 19.8568 127.778 19.5579C127.708 19.259 127.673 18.9338 127.673 18.5822C127.673 17.8614 127.813 17.2461 128.095 16.7363C128.394 16.2265 128.798 15.8133 129.308 15.4969C129.818 15.1629 130.398 14.9167 131.048 14.7585C131.699 14.6003 132.384 14.5212 133.105 14.5212C134.037 14.5212 134.881 14.6706 135.637 14.9695C136.393 15.2683 137.017 15.7078 137.509 16.288C138.001 16.8681 138.291 17.5977 138.379 18.4767H135.821C135.716 18.0021 135.408 17.6241 134.898 17.3428C134.406 17.0439 133.782 16.8945 133.026 16.8945C132.762 16.8945 132.472 16.9121 132.156 16.9472C131.857 16.9824 131.567 17.0615 131.286 17.1846C131.004 17.3076 130.776 17.4834 130.6 17.712C130.424 17.923 130.336 18.2042 130.336 18.5558C130.336 18.8899 130.415 19.1711 130.574 19.3997C130.749 19.6282 130.995 19.8128 131.312 19.9535C131.646 20.0941 132.024 20.2084 132.446 20.2963C133.044 20.4369 133.685 20.5688 134.371 20.6918C135.074 20.8149 135.645 20.9467 136.085 21.0874C136.665 21.2456 137.157 21.4742 137.562 21.773C137.984 22.0719 138.3 22.4499 138.511 22.9069C138.74 23.364 138.854 23.9178 138.854 24.5683C138.854 25.4121 138.687 26.1065 138.353 26.6515C138.019 27.1789 137.57 27.6009 137.008 27.9173C136.463 28.2337 135.848 28.4535 135.162 28.5766C134.494 28.6996 133.835 28.7611 133.184 28.7611Z" fill="white"/>
<path d="M120.286 28.7611C118.827 28.7611 117.605 28.4623 116.62 27.8646C115.636 27.2668 114.889 26.4406 114.379 25.3858C113.887 24.3134 113.641 23.0827 113.641 21.6939C113.641 20.2875 113.895 19.0481 114.405 17.9757C114.933 16.9033 115.689 16.0594 116.673 15.4441C117.675 14.8288 118.879 14.5212 120.286 14.5212C121.358 14.5212 122.29 14.7234 123.081 15.1277C123.872 15.5145 124.523 16.0419 125.033 16.7099C125.56 17.378 125.947 18.1251 126.193 18.9514C126.439 19.7601 126.544 20.6039 126.509 21.4829C126.509 21.6763 126.5 21.8609 126.483 22.0367C126.465 22.2125 126.448 22.3971 126.43 22.5905H116.383C116.436 23.2937 116.612 23.9354 116.91 24.5155C117.227 25.0957 117.666 25.5616 118.229 25.9132C118.792 26.2472 119.486 26.4142 120.312 26.4142C120.769 26.4142 121.209 26.3615 121.631 26.256C122.07 26.1329 122.457 25.9483 122.791 25.7022C123.143 25.4385 123.389 25.1045 123.529 24.7001H126.272C126.043 25.6319 125.63 26.4054 125.033 27.0207C124.452 27.6184 123.74 28.0579 122.897 28.3392C122.07 28.6205 121.2 28.7611 120.286 28.7611ZM116.436 20.4281H123.819C123.802 19.7425 123.644 19.136 123.345 18.6086C123.046 18.0636 122.633 17.6417 122.105 17.3428C121.578 17.0264 120.945 16.8681 120.207 16.8681C119.398 16.8681 118.721 17.0351 118.176 17.3692C117.649 17.7032 117.236 18.1427 116.937 18.6877C116.656 19.2151 116.489 19.7952 116.436 20.4281Z" fill="white"/>
<path d="M110.178 28.7616C108.684 28.7616 107.612 28.3573 106.961 27.5486C106.328 26.7223 106.012 25.5708 106.012 24.094V17.1323H103.797V14.7062H106.012V10.6716H108.728V14.7062H112.974V17.1323H108.728V23.6458C108.728 24.138 108.772 24.5863 108.86 24.9906C108.965 25.395 109.159 25.7114 109.44 25.94C109.721 26.1685 110.126 26.2916 110.653 26.3092C111.057 26.3092 111.409 26.2388 111.708 26.0982C112.024 25.9576 112.279 25.7993 112.473 25.6235L113.527 27.654C113.193 27.9177 112.842 28.1375 112.473 28.3133C112.121 28.4715 111.752 28.5858 111.365 28.6561C110.978 28.7264 110.583 28.7616 110.178 28.7616Z" fill="white"/>
<path d="M95.8158 28.7611C95.1829 28.7611 94.5676 28.682 93.9699 28.5238C93.3897 28.348 92.8711 28.0931 92.414 27.7591C91.9569 27.4075 91.5878 26.9768 91.3065 26.4669C91.0428 25.9395 90.9109 25.3242 90.9109 24.621C90.9109 23.7772 91.0691 23.0827 91.3856 22.5378C91.7196 21.9752 92.1591 21.5445 92.7041 21.2456C93.2491 20.9292 93.8732 20.7094 94.5764 20.5864C95.2972 20.4457 96.0443 20.3754 96.8179 20.3754H100.22C100.22 19.6898 100.114 19.092 99.9032 18.5822C99.6922 18.0548 99.3582 17.6505 98.9011 17.3692C98.4616 17.0703 97.8727 16.9209 97.1343 16.9209C96.6948 16.9209 96.2729 16.9736 95.8685 17.0791C95.4818 17.167 95.1477 17.3164 94.8665 17.5274C94.5852 17.7384 94.3918 18.0196 94.2863 18.3712H91.4383C91.5438 17.7032 91.7811 17.1318 92.1503 16.6572C92.5195 16.1649 92.9766 15.7606 93.5216 15.4441C94.0666 15.1277 94.6467 14.8992 95.262 14.7585C95.8949 14.6003 96.5366 14.5212 97.187 14.5212C99.1912 14.5212 100.633 15.1101 101.512 16.288C102.408 17.4483 102.857 19.0481 102.857 21.0874V28.6029H100.51L100.404 26.8361C99.9999 27.3811 99.5164 27.7942 98.9539 28.0755C98.4089 28.3568 97.8639 28.5414 97.3189 28.6293C96.7739 28.7172 96.2729 28.7611 95.8158 28.7611ZM96.2377 26.4669C97.0288 26.4669 97.7232 26.3351 98.321 26.0714C98.9187 25.7901 99.3846 25.3945 99.7186 24.8847C100.053 24.3573 100.22 23.742 100.22 23.0388V22.4586H97.7408C97.231 22.4586 96.73 22.4762 96.2377 22.5114C95.763 22.529 95.3235 22.5993 94.9192 22.7223C94.5324 22.8278 94.216 23.0124 93.9699 23.2761C93.7413 23.5398 93.6271 23.9178 93.6271 24.41C93.6271 24.8847 93.7501 25.2715 93.9962 25.5703C94.2424 25.8692 94.5676 26.0977 94.9719 26.256C95.3763 26.3966 95.7982 26.4669 96.2377 26.4669Z" fill="white"/>
<path d="M82.6873 28.6029V14.7058H85.2452L85.3771 16.7099C85.7287 16.1649 86.133 15.7342 86.5901 15.4178C87.0472 15.1013 87.5482 14.8728 88.0932 14.7321C88.6382 14.5915 89.2096 14.5212 89.8073 14.5212C89.9655 14.5212 90.1149 14.5212 90.2556 14.5212C90.3962 14.5212 90.5281 14.5212 90.6511 14.5212V17.1318H89.8073C88.8052 17.1318 87.9701 17.334 87.3021 17.7384C86.6516 18.1427 86.1682 18.7053 85.8517 19.4261C85.5529 20.1468 85.4034 20.9731 85.4034 21.9049V28.6029H82.6873Z" fill="white"/>
<path d="M75.3902 28.7611C73.931 28.7611 72.7092 28.4623 71.7247 27.8646C70.7578 27.2668 70.0282 26.4406 69.536 25.3858C69.0613 24.3134 68.824 23.0827 68.824 21.6939C68.824 20.3226 69.0701 19.1008 69.5623 18.0284C70.0722 16.9385 70.8281 16.0858 71.8302 15.4705C72.8498 14.8376 74.1068 14.5212 75.6011 14.5212C76.6208 14.5212 77.5262 14.697 78.3173 15.0486C79.1084 15.3826 79.75 15.8836 80.2423 16.5517C80.7521 17.2022 81.0861 18.0196 81.2444 19.0041H78.5282C78.2997 18.2833 77.9129 17.7647 77.3679 17.4483C76.8405 17.1318 76.2164 16.9736 75.4956 16.9736C74.5287 16.9736 73.7552 17.2022 73.1751 17.6592C72.6125 18.1163 72.1994 18.7053 71.9357 19.4261C71.672 20.1468 71.5401 20.9028 71.5401 21.6939C71.5401 22.5202 71.672 23.2849 71.9357 23.9881C72.2169 24.6913 72.6389 25.2627 73.2014 25.7022C73.7816 26.1241 74.5375 26.3351 75.4693 26.3351C76.1725 26.3351 76.8229 26.1856 77.4207 25.8868C78.0184 25.5703 78.4052 25.0429 78.581 24.3046H81.3762C81.218 25.3242 80.8488 26.1681 80.2687 26.8361C79.6885 27.4866 78.9677 27.97 78.1063 28.2865C77.2624 28.6029 76.3571 28.7611 75.3902 28.7611Z" fill="white"/>
<path d="M61.1587 28.7611C59.7171 28.7611 58.4953 28.4711 57.4932 27.8909C56.4912 27.2932 55.7264 26.4581 55.199 25.3858C54.6892 24.3134 54.4343 23.074 54.4343 21.6675C54.4343 20.2435 54.698 19.0041 55.2254 17.9493C55.7528 16.8769 56.5175 16.0419 57.5196 15.4441C58.5217 14.8288 59.7435 14.5212 61.1851 14.5212C62.6266 14.5212 63.8485 14.8288 64.8505 15.4441C65.8526 16.0419 66.6086 16.8769 67.1184 17.9493C67.6282 19.0217 67.8831 20.2699 67.8831 21.6939C67.8831 23.0827 67.6194 24.3134 67.092 25.3858C66.5822 26.4581 65.8262 27.2932 64.8242 27.8909C63.8397 28.4711 62.6179 28.7611 61.1587 28.7611ZM61.1587 26.3351C62.108 26.3351 62.8728 26.1241 63.4529 25.7022C64.0506 25.2803 64.4901 24.7177 64.7714 24.0145C65.0527 23.2937 65.1934 22.5114 65.1934 21.6675C65.1934 20.8237 65.0527 20.0502 64.7714 19.3469C64.4901 18.6437 64.0506 18.0812 63.4529 17.6592C62.8728 17.2197 62.108 17 61.1587 17C60.227 17 59.4622 17.2197 58.8645 17.6592C58.2668 18.0812 57.8273 18.6437 57.546 19.3469C57.2823 20.0502 57.1504 20.8237 57.1504 21.6675C57.1504 22.529 57.2823 23.3113 57.546 24.0145C57.8273 24.7177 58.2668 25.2803 58.8645 25.7022C59.4622 26.1241 60.227 26.3351 61.1587 26.3351Z" fill="white"/>
<path d="M48.032 28.7611C47.3816 28.7611 46.7311 28.6996 46.0806 28.5766C45.4302 28.4535 44.8237 28.2337 44.2611 27.9173C43.6985 27.6009 43.2239 27.1789 42.8371 26.6515C42.4503 26.1065 42.2042 25.4385 42.0987 24.6474H44.8676C45.0083 25.0693 45.2544 25.4121 45.606 25.6758C45.9752 25.9395 46.3795 26.1329 46.819 26.256C47.2761 26.379 47.7244 26.4406 48.1639 26.4406C48.4276 26.4406 48.7177 26.423 49.0341 26.3878C49.3681 26.3527 49.6846 26.2736 49.9834 26.1505C50.2823 26.0274 50.5284 25.8516 50.7218 25.6231C50.9152 25.377 51.0119 25.0517 51.0119 24.6474C51.0119 24.3309 50.924 24.0672 50.7482 23.8563C50.59 23.6453 50.3614 23.4783 50.0626 23.3552C49.7813 23.2146 49.4385 23.1091 49.0341 23.0388C48.243 22.863 47.3904 22.696 46.4762 22.5378C45.5796 22.362 44.7885 22.0631 44.1029 21.6412C43.8568 21.4829 43.637 21.3071 43.4436 21.1138C43.2502 20.9028 43.0832 20.6655 42.9426 20.4018C42.8019 20.1381 42.6965 19.8568 42.6261 19.5579C42.5558 19.259 42.5207 18.9338 42.5207 18.5822C42.5207 17.8614 42.6613 17.2461 42.9426 16.7363C43.2414 16.2265 43.6458 15.8133 44.1556 15.4969C44.6654 15.1629 45.2456 14.9167 45.8961 14.7585C46.5465 14.6003 47.2321 14.5212 47.9529 14.5212C48.8847 14.5212 49.7285 14.6706 50.4845 14.9695C51.2404 15.2683 51.8645 15.7078 52.3568 16.288C52.849 16.8681 53.1391 17.5977 53.227 18.4767H50.6691C50.5636 18.0021 50.2559 17.6241 49.7461 17.3428C49.2539 17.0439 48.6298 16.8945 47.8738 16.8945C47.6101 16.8945 47.32 16.9121 47.0036 16.9472C46.7047 16.9824 46.4147 17.0615 46.1334 17.1846C45.8521 17.3076 45.6236 17.4834 45.4478 17.712C45.272 17.923 45.1841 18.2042 45.1841 18.5558C45.1841 18.8899 45.2632 19.1711 45.4214 19.3997C45.5972 19.6282 45.8433 19.8128 46.1598 19.9535C46.4938 20.0941 46.8718 20.2084 47.2937 20.2963C47.8914 20.4369 48.5331 20.5688 49.2187 20.6918C49.9219 20.8149 50.4933 20.9467 50.9328 21.0874C51.5129 21.2456 52.0052 21.4742 52.4095 21.773C52.8314 22.0719 53.1479 22.4499 53.3588 22.9069C53.5874 23.364 53.7017 23.9178 53.7017 24.5683C53.7017 25.4121 53.5346 26.1065 53.2006 26.6515C52.8666 27.1789 52.4183 27.6009 51.8557 27.9173C51.3108 28.2337 50.6954 28.4535 50.0098 28.5766C49.3418 28.6996 48.6825 28.7611 48.032 28.7611Z" fill="white"/>
<path fill-rule="evenodd" clip-rule="evenodd" d="M13.5094 7.30697C13.5566 6.53838 14.1685 5.95685 14.8762 6.00809C20.6576 6.42671 24.3626 8.0268 26.6107 9.86044C28.8513 11.6881 29.6548 13.76 29.5826 15.1118C29.5798 17.761 27.9934 19.9718 25.3591 21.5993C22.725 23.2267 19.0134 24.2937 14.6727 24.6597C10.1844 25.0382 6.53623 24.4156 4.00026 23.1664C1.46195 21.916 0.00302111 20.0149 0.00302085 17.8397C0.00302101 15.657 1.4705 13.942 4.00829 12.8229C6.54026 11.7064 10.183 11.1568 14.6627 11.3088C15.3716 11.3329 15.9283 11.9765 15.9061 12.7465C15.884 13.5164 15.2914 14.121 14.5825 14.097C10.2862 13.9512 7.04385 14.495 4.97445 15.4075C2.87492 16.3333 2.57136 17.3067 2.57136 17.8397C2.57136 18.471 2.99281 19.6071 5.0611 20.626C7.0868 21.6238 10.2699 22.2331 14.4739 21.8786C18.5872 21.5317 21.8929 20.5316 24.0891 19.1747C26.291 17.8143 27.0143 16.3663 27.0143 15.1047C27.0143 14.9568 27.0138 14.8298 26.9776 14.683C26.9362 14.5154 26.8587 14.2921 26.7227 14.0268C26.452 13.4989 25.9526 12.8122 25.0684 12.091C23.3273 10.6709 20.1459 9.18534 14.7054 8.7914C13.9977 8.74016 13.4623 8.07556 13.5094 7.30697Z" fill="#FFBF00"/>
<path fill-rule="evenodd" clip-rule="evenodd" d="M13.5094 7.30697C13.5566 6.53838 14.1685 5.95685 14.8762 6.00809C20.6576 6.42671 24.3626 8.0268 26.6107 9.86044C28.8513 11.6881 29.6548 13.76 29.5826 15.1118C29.5798 17.761 27.9934 19.9718 25.3591 21.5993C22.725 23.2267 19.0134 24.2937 14.6727 24.6597C10.1844 25.0382 6.53623 24.4156 4.00026 23.1664C1.46195 21.916 0.00302111 20.0149 0.00302085 17.8397C0.00302101 15.657 1.4705 13.942 4.00829 12.8229C6.54026 11.7064 10.183 11.1568 14.6627 11.3088C15.3716 11.3329 15.9283 11.9765 15.9061 12.7465C15.884 13.5164 15.2914 14.121 14.5825 14.097C10.2862 13.9512 7.04385 14.495 4.97445 15.4075C2.87492 16.3333 2.57136 17.3067 2.57136 17.8397C2.57136 18.471 2.99281 19.6071 5.0611 20.626C7.0868 21.6238 10.2699 22.2331 14.4739 21.8786C18.5872 21.5317 21.8929 20.5316 24.0891 19.1747C26.291 17.8143 27.0143 16.3663 27.0143 15.1047C27.0143 14.9568 27.0138 14.8298 26.9776 14.683C26.9362 14.5154 26.8587 14.2921 26.7227 14.0268C26.452 13.4989 25.9526 12.8122 25.0684 12.091C23.3273 10.6709 20.1459 9.18534 14.7054 8.7914C13.9977 8.74016 13.4623 8.07556 13.5094 7.30697Z" fill="url(#paint0_radial_7_130)"/>
<path d="M22.511 24.4253C22.6366 24.3805 22.7612 24.3349 22.8847 24.2884C23.4237 24.187 23.9834 24.4702 24.2461 25.0267C24.5698 25.7122 24.3205 26.5527 23.6894 26.9042C18.014 30.065 11.7799 29.7949 7.41381 28.8998C5.23177 28.4525 3.3948 27.6788 2.09725 26.7548C1.4111 26.2662 0.908202 25.7629 0.56597 25.2588C0.235352 24.7719 0.00320503 24.2047 0.00318337 23.6151C0.00316325 23.0638 0.101578 22.5432 0.291459 22.0564C1.09913 22.9855 2.16623 23.7681 3.40346 24.3775C3.4448 24.3979 3.48637 24.4181 3.52818 24.4381C4.47793 25.1081 5.96823 25.7647 7.8902 26.1587C11.7415 26.9483 17.109 27.1223 22.511 24.4253Z" fill="#FFBF00"/>
<path d="M22.511 24.4253C22.6366 24.3805 22.7612 24.3349 22.8847 24.2884C23.4237 24.187 23.9834 24.4702 24.2461 25.0267C24.5698 25.7122 24.3205 26.5527 23.6894 26.9042C18.014 30.065 11.7799 29.7949 7.41381 28.8998C5.23177 28.4525 3.3948 27.6788 2.09725 26.7548C1.4111 26.2662 0.908202 25.7629 0.56597 25.2588C0.235352 24.7719 0.00320503 24.2047 0.00318337 23.6151C0.00316325 23.0638 0.101578 22.5432 0.291459 22.0564C1.09913 22.9855 2.16623 23.7681 3.40346 24.3775C3.4448 24.3979 3.48637 24.4181 3.52818 24.4381C4.47793 25.1081 5.96823 25.7647 7.8902 26.1587C11.7415 26.9483 17.109 27.1223 22.511 24.4253Z" fill="url(#paint1_radial_7_130)"/>
<path d="M21.7717 18.851C19.703 18.2329 17.3026 17.813 14.6706 17.6187C10.4275 17.3055 6.93521 17.6853 4.42566 18.6099C4.68165 18.8456 5.07063 19.1242 5.65816 19.4137C6.53283 19.8445 7.70373 20.2103 9.16361 20.4249C10.7002 20.2736 12.4822 20.2531 14.4964 20.4018C14.7178 20.4181 14.9368 20.4361 15.1536 20.4557C17.8221 20.1663 20.0523 19.5898 21.7717 18.851Z" fill="#FFBF00"/>
<path d="M21.7717 18.851C19.703 18.2329 17.3026 17.813 14.6706 17.6187C10.4275 17.3055 6.93521 17.6853 4.42566 18.6099C4.68165 18.8456 5.07063 19.1242 5.65816 19.4137C6.53283 19.8445 7.70373 20.2103 9.16361 20.4249C10.7002 20.2736 12.4822 20.2531 14.4964 20.4018C14.7178 20.4181 14.9368 20.4361 15.1536 20.4557C17.8221 20.1663 20.0523 19.5898 21.7717 18.851Z" fill="url(#paint2_radial_7_130)"/>
<path d="M25.0793 23.3112C25.4218 23.1316 25.7519 22.9438 26.0691 22.7478C26.5658 22.441 27.0356 22.1102 27.4731 21.7562C28.8137 22.9522 29.5803 24.3795 29.5829 26.0012C29.6558 27.2107 28.8379 29.0327 26.5999 30.6299C24.3531 32.2333 20.6517 33.6318 14.8749 33.9975C14.1669 34.0424 13.5595 33.4553 13.5182 32.6863C13.4769 31.9173 14.0174 31.2576 14.7254 31.2128C20.2153 30.8652 23.4353 29.5505 25.1895 28.2986C27.6782 26.5225 27.4515 24.8698 25.0793 23.3112Z" fill="#FFBF00"/>
<path d="M25.0793 23.3112C25.4218 23.1316 25.7519 22.9438 26.0691 22.7478C26.5658 22.441 27.0356 22.1102 27.4731 21.7562C28.8137 22.9522 29.5803 24.3795 29.5829 26.0012C29.6558 27.2107 28.8379 29.0327 26.5999 30.6299C24.3531 32.2333 20.6517 33.6318 14.8749 33.9975C14.1669 34.0424 13.5595 33.4553 13.5182 32.6863C13.4769 31.9173 14.0174 31.2576 14.7254 31.2128C20.2153 30.8652 23.4353 29.5505 25.1895 28.2986C27.6782 26.5225 27.4515 24.8698 25.0793 23.3112Z" fill="url(#paint3_radial_7_130)"/>
<defs>
<radialGradient id="paint0_radial_7_130" cx="0" cy="0" r="1" gradientUnits="userSpaceOnUse" gradientTransform="translate(12.5047 13.1974) rotate(83.047) scale(11.1714 13.2683)">
<stop stop-color="#FB9937"/>
<stop offset="1" stop-color="#FFBF00"/>
</radialGradient>
<radialGradient id="paint1_radial_7_130" cx="0" cy="0" r="1" gradientUnits="userSpaceOnUse" gradientTransform="translate(18.1846 19.6881) rotate(96.4588) scale(14.4265 24.5464)">
<stop stop-color="#EB7805"/>
<stop offset="1" stop-color="#FFBF00"/>
</radialGradient>
<radialGradient id="paint2_radial_7_130" cx="0" cy="0" r="1" gradientUnits="userSpaceOnUse" gradientTransform="translate(18.1846 19.6881) rotate(96.4588) scale(14.4265 24.5464)">
<stop stop-color="#EB7805"/>
<stop offset="1" stop-color="#FFBF00"/>
</radialGradient>
<radialGradient id="paint3_radial_7_130" cx="0" cy="0" r="1" gradientUnits="userSpaceOnUse" gradientTransform="translate(18.1846 19.6881) rotate(96.4588) scale(14.4265 24.5464)">
<stop stop-color="#EB7805"/>
<stop offset="1" stop-color="#FFBF00"/>
</radialGradient>
</defs>
</svg>
