<svg width="34" height="35" viewBox="0 0 34 35" fill="none" xmlns="http://www.w3.org/2000/svg">
<mask id="mask0_1_7350" style="mask-type:alpha" maskUnits="userSpaceOnUse" x="0" y="0" width="34" height="36">
<path d="M32.6554 11.9584L22.8505 1V9.65137C22.8505 10.9255 23.8834 11.9584 25.1576 11.9584H32.6554Z" fill="#FDA723"/>
<path d="M1.5105 17.1492V3.30703C1.5105 2.03289 2.54339 1 3.81753 1H22.8505M22.8505 1L32.6554 11.9584M22.8505 1V9.65137C22.8505 10.9255 23.8834 11.9584 25.1576 11.9584H32.6554M32.6554 11.9584V17.1492" stroke="#FDA723" stroke-width="2" stroke-linecap="round" stroke-linejoin="round"/>
<path d="M5.60363 35.0005C4.6443 35.0005 3.82366 34.8618 3.14173 34.5844C2.47135 34.307 1.92233 33.914 1.49468 33.4054C1.07858 32.8969 0.772289 32.29 0.575799 31.585C0.390867 30.8684 0.298401 30.0651 0.298401 29.1751V22.5869H2.81232V29.3485C2.81232 29.7993 2.85855 30.2327 2.95102 30.6488C3.04348 31.0533 3.19952 31.4116 3.41912 31.7237C3.63873 32.0358 3.92769 32.29 4.28599 32.4865C4.6443 32.6715 5.09507 32.7639 5.6383 32.7639C6.16998 32.7639 6.61498 32.6715 6.97328 32.4865C7.33159 32.29 7.61476 32.0358 7.82281 31.7237C8.04242 31.4001 8.19267 31.036 8.27358 30.6314C8.36605 30.2153 8.41228 29.7877 8.41228 29.3485V22.5869H10.9089V29.1751C10.9089 30.042 10.8106 30.8395 10.6141 31.5677C10.4292 32.2843 10.1229 32.8969 9.69524 33.4054C9.27915 33.914 8.73013 34.307 8.0482 34.5844C7.37782 34.8618 6.56296 35.0005 5.60363 35.0005Z" fill="white"/>
<path d="M18.3111 22.5869C18.6347 22.5869 18.9584 22.5985 19.282 22.6216C19.6056 22.6331 19.9235 22.6736 20.2355 22.7429C20.5476 22.8123 20.8481 22.9163 21.1371 23.055C21.4376 23.1822 21.715 23.3613 21.9693 23.5925C22.3738 23.9623 22.6628 24.4073 22.8361 24.9275C23.0095 25.436 23.0904 25.9561 23.0789 26.4878C23.0673 27.2044 22.9402 27.8112 22.6974 28.3082C22.4663 28.8052 22.1484 29.2271 21.7439 29.5739C21.374 29.8744 20.9464 30.0882 20.4609 30.2153L23.1829 34.8618H20.3742L17.895 30.4581H15.9359V34.8618H13.422V22.5869H18.3111ZM18.3284 28.3429C18.6405 28.3429 18.9352 28.314 19.2126 28.2562C19.49 28.1984 19.727 28.106 19.9235 27.9788C20.1315 27.8401 20.2933 27.661 20.4089 27.4414C20.5361 27.2102 20.6054 26.9213 20.617 26.5745C20.6285 26.2046 20.5765 25.9041 20.4609 25.673C20.3453 25.4418 20.1835 25.2626 19.9755 25.1355C19.779 25.0084 19.542 24.9275 19.2646 24.8928C18.9988 24.8465 18.7041 24.8234 18.3804 24.8234H15.9359V28.3429H18.3284Z" fill="white"/>
<path d="M27.6856 32.6426H33.7016V34.8618H25.189V22.5869H27.6856V32.6426Z" fill="white"/>
</mask>
<g mask="url(#mask0_1_7350)">
<rect x="-7.25824" y="-6.24512" width="72.0948" height="50.3333" fill="url(#paint0_linear_1_7350)"/>
</g>
<defs>
<linearGradient id="paint0_linear_1_7350" x1="26.4986" y1="-11.2426" x2="26.4986" y2="42.7938" gradientUnits="userSpaceOnUse">
<stop stop-color="#FFBF00"/>
<stop offset="0.892445" stop-color="#FB9937"/>
</linearGradient>
</defs>
</svg>
