<svg width="36" height="36" viewBox="0 0 36 36" fill="none" xmlns="http://www.w3.org/2000/svg">
<mask id="mask0_1_7339" style="mask-type:alpha" maskUnits="userSpaceOnUse" x="0" y="0" width="36" height="36">
<path d="M9.69141 17.3354L9.69141 28.3569C9.69141 32.58 13.1114 36 17.3345 36L21.4606 36C22.2222 36 22.8453 35.3769 22.8453 34.6154L22.8453 28.3846C22.8453 25.3246 25.3237 22.8462 28.3837 22.8462L34.6145 22.8462C35.376 22.8462 35.9991 22.2231 35.9991 21.4615L35.9991 17.3354C35.9991 12.5585 33.1468 9.69231 28.356 9.69231L17.3345 9.69231C13.1114 9.69231 9.69141 13.1123 9.69141 17.3354Z" fill="white"/>
<path d="M27.6914 33.9232V27.6924M27.6914 27.6924H33.9222M27.6914 27.6924L34.6145 34.6155" stroke="white" stroke-width="2" stroke-linecap="round" stroke-linejoin="round"/>
<path fill-rule="evenodd" clip-rule="evenodd" d="M8.50933 2.05778C8.68403 2.04474 8.86068 2.03809 9.03906 2.03809H9.53463C10.0869 2.03809 10.5346 1.59037 10.5346 1.03809C10.5346 0.485801 10.0869 0.0380859 9.53463 0.0380859H9.03906C8.81093 0.0380859 8.58461 0.046594 8.3604 0.0633356C7.80965 0.104461 7.39652 0.584272 7.43764 1.13502C7.47877 1.68577 7.95858 2.09891 8.50933 2.05778ZM13.6973 0.0380859C13.1451 0.0380859 12.6973 0.485801 12.6973 1.03809C12.6973 1.59037 13.1451 2.03809 13.6973 2.03809H14.6885C15.2408 2.03809 15.6885 1.59037 15.6885 1.03809C15.6885 0.485801 15.2408 0.0380859 14.6885 0.0380859H13.6973ZM18.8512 0.0380859C18.2989 0.0380859 17.8512 0.485801 17.8512 1.03809C17.8512 1.59037 18.2989 2.03809 18.8512 2.03809H19.3468C19.5251 2.03809 19.7018 2.04474 19.8765 2.05778C20.4272 2.09891 20.907 1.68577 20.9482 1.13502C20.9893 0.584272 20.5762 0.104461 20.0254 0.0633356C19.8012 0.046594 19.5749 0.0380859 19.3468 0.0380859H18.8512ZM25.2128 2.21227C24.7941 1.85214 24.1627 1.89963 23.8026 2.31834C23.4425 2.73706 23.4899 3.36844 23.9087 3.72857C24.1762 3.95867 24.4262 4.20865 24.6563 4.47618C25.0164 4.89489 25.6478 4.94238 26.0665 4.58224C26.4852 4.22211 26.5327 3.59073 26.1726 3.17201C25.8772 2.82856 25.5563 2.50768 25.2128 2.21227ZM4.47715 3.72857C4.89587 3.36844 4.94335 2.73706 4.58322 2.31834C4.22309 1.89963 3.5917 1.85214 3.17299 2.21228C2.82954 2.50768 2.50865 2.82856 2.21325 3.17202C1.85312 3.59073 1.90061 4.22211 2.31932 4.58225C2.73803 4.94238 3.36942 4.89489 3.72955 4.47618C3.95965 4.20865 4.20962 3.95868 4.47715 3.72857ZM28.3215 8.35943C28.2804 7.80868 27.8006 7.39554 27.2498 7.43667C26.6991 7.47779 26.2859 7.9576 26.3271 8.50836C26.3401 8.68305 26.3468 8.8597 26.3468 9.03809V9.53365C26.3468 10.0859 26.7945 10.5336 27.3468 10.5336C27.899 10.5336 28.3468 10.0859 28.3468 9.53365V9.03809C28.3468 8.80996 28.3382 8.58363 28.3215 8.35943ZM2.05876 8.50836C2.09988 7.95761 1.68675 7.4778 1.136 7.43667C0.585248 7.39555 0.105437 7.80868 0.0643122 8.35943C0.0475706 8.58363 0.0390625 8.80996 0.0390625 9.03809V9.53365C0.0390625 10.0859 0.486778 10.5337 1.03906 10.5337C1.59135 10.5337 2.03906 10.0859 2.03906 9.53365V9.03809C2.03906 8.8597 2.04571 8.68305 2.05876 8.50836ZM28.3275 13.5C28.2362 13.0417 27.8318 12.6964 27.3468 12.6964C26.8617 12.6964 26.4573 13.0417 26.366 13.5H28.3275ZM14.8828 26.3646V28.3269C14.8199 28.3393 14.755 28.3458 14.6885 28.3458H13.6973C13.1451 28.3458 12.6973 27.8981 12.6973 27.3458C12.6973 26.7935 13.1451 26.3458 13.6973 26.3458H14.6885C14.755 26.3458 14.8199 26.3523 14.8828 26.3646ZM2.03906 13.6964C2.03906 13.1441 1.59135 12.6964 1.03906 12.6964C0.486778 12.6964 0.0390625 13.1441 0.0390625 13.6964V14.6875C0.0390625 15.2398 0.486778 15.6875 1.03906 15.6875C1.59135 15.6875 2.03906 15.2398 2.03906 14.6875V13.6964ZM2.03906 18.8502C2.03906 18.2979 1.59135 17.8502 1.03906 17.8502C0.486778 17.8502 0.0390625 18.2979 0.0390625 18.8502V19.3458C0.0390625 19.5739 0.0475706 19.8002 0.0643122 20.0244C0.105437 20.5752 0.585248 20.9883 1.136 20.9472C1.68675 20.9061 2.09988 20.4263 2.05876 19.8755C2.04571 19.7008 2.03906 19.5242 2.03906 19.3458V18.8502ZM3.72955 23.9077C3.36942 23.489 2.73803 23.4415 2.31932 23.8016C1.90061 24.1618 1.85312 24.7931 2.21325 25.2119C2.50866 25.5553 2.82954 25.8762 3.17299 26.1716C3.59171 26.5317 4.22309 26.4842 4.58322 26.0655C4.94336 25.6468 4.89587 25.0154 4.47715 24.6553C4.20962 24.4252 3.95965 24.1752 3.72955 23.9077ZM8.50933 26.3261C7.95858 26.285 7.47877 26.6981 7.43765 27.2488C7.39652 27.7996 7.80966 28.2794 8.36041 28.3205C8.58461 28.3373 8.81094 28.3458 9.03907 28.3458H9.53463C10.0869 28.3458 10.5346 27.8981 10.5346 27.3458C10.5346 26.7935 10.0869 26.3458 9.53463 26.3458H9.03907C8.86068 26.3458 8.68403 26.3391 8.50933 26.3261Z" fill="#FCFCFC"/>
</mask>
<g mask="url(#mask0_1_7339)">
<rect x="-2.76953" y="-6.92383" width="49.8462" height="48.4615" fill="#D9D9D9"/>
<rect x="-2.76953" y="-6.92383" width="49.8462" height="48.4615" fill="url(#paint0_linear_1_7339)"/>
</g>
<defs>
<linearGradient id="paint0_linear_1_7339" x1="20.5699" y1="-11.7355" x2="20.5699" y2="40.2915" gradientUnits="userSpaceOnUse">
<stop stop-color="#FFBF00"/>
<stop offset="0.892445" stop-color="#FB9937"/>
</linearGradient>
</defs>
</svg>
